<svg width="48" height="48" viewBox="0 0 48 48" fill="none" xmlns="http://www.w3.org/2000/svg">
<path d="M34.6305 12C36.2216 12.0001 37.7476 12.6327 38.8727 13.7578C39.9978 14.883 40.6305 16.4088 40.6305 18V30C40.6305 31.5912 39.9978 33.117 38.8727 34.2422C37.7476 35.3673 36.2216 35.9999 34.6305 36H18.5143C17.6144 36.0001 16.7258 35.798 15.9147 35.4082C15.1035 35.0184 14.3899 34.4508 13.8278 33.748L8.31213 25.0732C7.89589 24.4186 7.89609 23.5815 8.31213 22.9268L13.8239 14.252C14.3865 13.5486 15.1008 12.9807 15.9127 12.5908C16.7245 12.2011 17.6138 11.9993 18.5143 12H34.6305ZM31.1188 18.5186C30.7304 18.5118 30.3542 18.6561 30.0699 18.9209L27.1305 21.8613L24.1901 18.9209C23.9058 18.6561 23.5297 18.5118 23.1412 18.5186C22.7527 18.5254 22.3819 18.6833 22.1071 18.958C21.8323 19.2328 21.6745 19.6036 21.6676 19.9922C21.6607 20.3807 21.8051 20.7567 22.0699 21.041L25.0104 23.9814L22.0699 26.9209C21.9226 27.0582 21.8043 27.2242 21.7223 27.4082C21.6403 27.5922 21.596 27.7908 21.5924 27.9922C21.5889 28.1935 21.6264 28.3934 21.7018 28.5801C21.7772 28.7668 21.8895 28.9367 22.0319 29.0791C22.1743 29.2215 22.3442 29.3337 22.5309 29.4092C22.7176 29.4846 22.9175 29.5221 23.1188 29.5186C23.3201 29.515 23.5188 29.4706 23.7028 29.3887C23.8868 29.3067 24.0527 29.1884 24.1901 29.041L27.1305 26.1016L30.0699 29.041C30.2073 29.1884 30.3733 29.3067 30.5573 29.3887C30.7412 29.4706 30.9399 29.515 31.1412 29.5186C31.3426 29.5221 31.5424 29.4846 31.7291 29.4092C31.9159 29.3337 32.0857 29.2215 32.2281 29.0791C32.3705 28.9367 32.4828 28.7668 32.5582 28.5801C32.6336 28.3934 32.6712 28.1935 32.6676 27.9922C32.664 27.7908 32.6197 27.5922 32.5377 27.4082C32.4557 27.2242 32.3374 27.0582 32.1901 26.9209L29.2496 23.9814L32.1901 21.041C32.4549 20.7567 32.5993 20.3807 32.5924 19.9922C32.5855 19.6036 32.4278 19.2328 32.153 18.958C31.8782 18.6833 31.5073 18.5254 31.1188 18.5186Z" fill="#757A8F"/>
</svg>
