<svg width="34" height="34" viewBox="0 0 34 34" fill="none" xmlns="http://www.w3.org/2000/svg">
<path d="M18.2256 14.0381L24.8887 6.85742L27.1426 9.11133L19.9609 15.7725L29.75 15.4062V18.5938L19.9619 18.2256L27.1426 24.8887L24.8887 27.1426L18.2256 19.9609L18.5938 29.75H15.4062L15.7725 19.9609L9.11133 27.1426L6.85742 24.8887L14.0381 18.2256L4.25 18.5938V15.4062L14.0381 15.7725L6.85742 9.11133L9.11133 6.85742L15.7725 14.0381L15.4062 4.25H18.5938L18.2256 14.0381Z" fill="#4B5169"/>
<path d="M18.2256 14.0381L24.8887 6.85742L27.1426 9.11133L19.9609 15.7725L29.75 15.4062V18.5938L19.9619 18.2256L27.1426 24.8887L24.8887 27.1426L18.2256 19.9609L18.5938 29.75H15.4062L15.7725 19.9609L9.11133 27.1426L6.85742 24.8887L14.0381 18.2256L4.25 18.5938V15.4062L14.0381 15.7725L6.85742 9.11133L9.11133 6.85742L15.7725 14.0381L15.4062 4.25H18.5938L18.2256 14.0381Z" fill="black" fill-opacity="0.2"/>
</svg>
