<svg width="24" height="24" viewBox="0 0 24 24" fill="none" xmlns="http://www.w3.org/2000/svg">
<path d="M12 14.1053C11.2795 14.1053 10.6671 13.8596 10.1628 13.3684C9.6585 12.8772 9.40634 12.2807 9.40634 11.5789V6.52632C9.40634 5.82456 9.6585 5.22807 10.1628 4.73684C10.6671 4.24561 11.2795 4 12 4C12.7205 4 13.3329 4.24561 13.8372 4.73684C14.3415 5.22807 14.5937 5.82456 14.5937 6.52632V11.5789C14.5937 12.2807 14.3415 12.8772 13.8372 13.3684C13.3329 13.8596 12.7205 14.1053 12 14.1053ZM12 20C11.755 20 11.5499 19.9192 11.3844 19.7575C11.2184 19.5964 11.1354 19.3965 11.1354 19.1579V17.3895C9.79539 17.2211 8.65706 16.6807 7.72046 15.7684C6.78386 14.8561 6.2147 13.7614 6.01297 12.4842C5.96974 12.2456 6.03458 12.0351 6.20749 11.8526C6.3804 11.6702 6.61095 11.5789 6.89914 11.5789C7.10086 11.5789 7.28098 11.6525 7.43948 11.7996C7.59798 11.9472 7.69885 12.1263 7.74207 12.3368C7.92939 13.3193 8.41931 14.1404 9.21182 14.8C10.0043 15.4596 10.9337 15.7895 12 15.7895C13.0663 15.7895 13.9957 15.4596 14.7882 14.8C15.5807 14.1404 16.0706 13.3193 16.2579 12.3368C16.3012 12.1263 16.4058 11.9472 16.5718 11.7996C16.7372 11.6525 16.9207 11.5789 17.1225 11.5789C17.3963 11.5789 17.6196 11.6702 17.7925 11.8526C17.9654 12.0351 18.0303 12.2456 17.987 12.4842C17.7853 13.7614 17.2161 14.8561 16.2795 15.7684C15.3429 16.6807 14.2046 17.2211 12.8646 17.3895V19.1579C12.8646 19.3965 12.7818 19.5964 12.6164 19.7575C12.4504 19.9192 12.245 20 12 20Z" fill="white"/>
</svg>
